<svg t="1696336495375" class="icon" viewBox="0 0 1024 1024" version="1.1" xmlns="http://www.w3.org/2000/svg" p-id="5059" width="64" height="64"><path d="M896 256a42.666667 42.666667 0 0 1 42.666667 42.666667v554.666666a42.666667 42.666667 0 0 1-42.666667 42.666667H128a42.666667 42.666667 0 0 1-42.666667-42.666667V298.666667a42.666667 42.666667 0 0 1 42.666667-42.666667h768z m-388.053333 338.645333c-12.245333 28.8-23.04 50.645333-32.426667 65.578667 4.266667 6.229333 8.789333 11.733333 13.354667 16.64 4.565333 4.864 9.002667 9.088 13.098666 12.8 4.181333 3.669333 8.832 6.826667 14.08 9.557333 5.248 2.773333 9.898667 5.12 13.824 6.912 4.010667 1.877333 9.045333 3.328 15.061334 4.48 10.581333 2.261333 21.333333 3.498667 32.128 3.754667 7.125333 0.256 12.885333 0.341333 17.365333 0.256 4.48-0.128 10.88-0.128 19.328-0.256l20.181333-0.085333v46.08c0 2.048 0.810667 3.968 2.261334 5.376a7.253333 7.253333 0 0 0 5.333333 2.261333 7.338667 7.338667 0 0 0 5.418667-2.133333l76.245333-76.970667a7.381333 7.381333 0 0 0 2.133333-5.461333 6.826667 6.826667 0 0 0-2.133333-5.333334l-75.946667-76.586666a8.874667 8.874667 0 0 0-5.717333-2.432 7.253333 7.253333 0 0 0-5.461333 2.133333 7.381333 7.381333 0 0 0-2.133334 5.461333v46.08H573.013333a53.248 53.248 0 0 1-19.456-3.413333 54.186667 54.186667 0 0 1-15.018666-8.405333 68.693333 68.693333 0 0 1-12.117334-13.653334 159.402667 159.402667 0 0 1-9.642666-15.232l-4.522667-8.661333-4.309333-8.746667zM641.493333 384a7.253333 7.253333 0 0 0-7.424 5.632l-0.170666 2.048v46.08h-60.970667a114.858667 114.858667 0 0 0-55.808 14.08 98.730667 98.730667 0 0 0-21.504 16.426667c-6.912 6.954667-12.8 13.525333-17.621333 19.968-5.632 7.637333-10.666667 15.658667-15.232 23.978666a368.938667 368.938667 0 0 0-12.8 25.173334c-3.285333 7.253333-7.253333 16.213333-11.818667 26.752-7.296 17.408-13.482667 31.146667-18.56 41.002666a190.208 190.208 0 0 1-10.709333 18.645334c-3.541333 5.290667-7.594667 10.24-12.117334 14.762666-4.693333 4.693333-10.24 8.362667-16.426666 10.752a57.770667 57.770667 0 0 1-20.736 3.626667h-53.333334a7.296 7.296 0 0 0-5.461333 2.133333 7.424 7.424 0 0 0-2.133333 5.546667v46.08a7.381333 7.381333 0 0 0 2.133333 5.461333 7.253333 7.253333 0 0 0 5.418667 2.133334h53.333333a113.578667 113.578667 0 0 0 55.893333-14.08 98.56 98.56 0 0 0 21.418667-16.469334c6.912-6.912 12.8-13.525333 17.706667-19.968 4.778667-6.314667 9.898667-14.336 15.146666-23.978666 5.290667-9.6 9.6-18.005333 12.885334-25.173334 3.242667-7.253333 7.168-16.213333 11.776-26.752 7.296-17.408 13.482667-31.061333 18.56-41.002666 3.797333-7.381333 7.338667-13.568 10.666666-18.645334a101.12 101.12 0 0 1 12.16-14.762666c4.693333-4.736 10.24-8.362667 16.426667-10.752 6.229333-2.389333 13.098667-3.626667 20.736-3.626667h61.013333v46.08c0 2.048 0.810667 4.010667 2.261334 5.418667a7.253333 7.253333 0 0 0 5.333333 2.218666 7.338667 7.338667 0 0 0 5.418667-2.133333l76.245333-76.928a7.381333 7.381333 0 0 0 2.133333-5.461333 6.997333 6.997333 0 0 0-2.133333-5.376l-76.032-76.458667A8.874667 8.874667 0 0 0 641.493333 384z m-281.856 53.546667H306.346667a7.253333 7.253333 0 0 0-5.461334 2.133333 7.381333 7.381333 0 0 0-2.133333 5.504v46.08a7.381333 7.381333 0 0 0 2.133333 5.546667 7.253333 7.253333 0 0 0 5.461334 2.133333h53.333333c12.458667-0.042667 24.576 4.138667 34.432 11.861333 4.010667 3.285333 8.064 7.850667 12.117333 13.610667 4.053333 5.76 7.253333 10.88 9.642667 15.274667 2.432 4.437333 5.290667 10.24 8.832 17.408 12.202667-28.970667 23.04-50.816 32.554667-65.536-25.386667-36.053333-57.984-54.101333-97.578667-54.016zM805.845333 128a42.666667 42.666667 0 0 1 42.666667 42.666667v42.666666h-682.666667V170.666667a42.666667 42.666667 0 0 1 42.666667-42.666667h597.333333z" fill="#1a99e0" p-id="5060"></path></svg>